<svg width="29" height="32" viewBox="0 0 29 32" fill="none" xmlns="http://www.w3.org/2000/svg">
<path d="M23.5625 16.586V14H21.75V17C21.7501 17.2652 21.8456 17.5195 22.0155 17.707L24.4688 20.414V22H4.53125V20.414L6.98447 17.707C7.15444 17.5195 7.24995 17.2652 7.25 17V13C7.24747 11.5948 7.58105 10.2137 8.21705 8.99632C8.85304 7.7789 9.76892 6.76823 10.8722 6.06641C11.9755 5.36458 13.227 4.99644 14.5005 4.99918C15.774 5.00192 17.0242 5.37543 18.125 6.082V3.847C17.2623 3.42552 16.3448 3.15688 15.4062 3.051V1H13.5938V3.05C11.3595 3.30093 9.28885 4.45712 7.7823 6.29498C6.27576 8.13285 5.44031 10.5218 5.4375 13V16.586L2.98428 19.293C2.81431 19.4805 2.7188 19.7348 2.71875 20V23C2.71875 23.2652 2.81423 23.5196 2.98418 23.7071C3.15414 23.8946 3.38465 24 3.625 24H9.96875V25C9.96875 26.3261 10.4461 27.5979 11.2959 28.5355C12.1457 29.4732 13.2982 30 14.5 30C15.7018 30 16.8543 29.4732 17.7041 28.5355C18.5539 27.5979 19.0312 26.3261 19.0312 25V24H25.375C25.6154 24 25.8459 23.8946 26.0158 23.7071C26.1858 23.5196 26.2812 23.2652 26.2812 23V20C26.2812 19.7348 26.1857 19.4805 26.0157 19.293L23.5625 16.586ZM17.2188 25C17.2187 25.7956 16.9323 26.5587 16.4224 27.1213C15.9126 27.6839 15.2211 28 14.5 28C13.7789 28 13.0874 27.6839 12.5776 27.1213C12.0677 26.5587 11.7812 25.7956 11.7812 25V24H17.2188V25Z" fill="#FFA800"/>
<path d="M23.5625 12C25.5645 12 27.1875 10.2091 27.1875 8C27.1875 5.79086 25.5645 4 23.5625 4C21.5605 4 19.9375 5.79086 19.9375 8C19.9375 10.2091 21.5605 12 23.5625 12Z" fill="#FFA800"/>
</svg>
