<svg width="28" height="28" viewBox="0 0 28 28" fill="none" xmlns="http://www.w3.org/2000/svg">
<path d="M8.5 1.33301L4.95303 1.33301C3.9932 1.33301 3.07268 1.7143 2.39398 2.393C1.71528 3.07171 1.33398 3.99222 1.33398 4.95206V23.0473C1.33398 24.0071 1.71528 24.9276 2.39398 25.6063C3.07268 26.285 3.9932 26.6663 4.95303 26.6663H23.0483C24.0081 26.6663 24.9286 26.285 25.6073 25.6063C26.286 24.9276 26.6673 24.0071 26.6673 23.0473V8.5" stroke="white" stroke-width="1.80952" stroke-linecap="round" stroke-linejoin="round"/>
<path d="M19.4294 14L14.0008 19.4286L8.57227 14" stroke="white" stroke-width="1.80952" stroke-linecap="round" stroke-linejoin="round"/>
<path d="M26.6676 1.33301H19.4295C17.9898 1.33301 16.609 1.90495 15.591 2.923C14.5729 3.94105 14.001 5.32183 14.001 6.76158V19.4282" stroke="white" stroke-width="1.80952" stroke-linecap="round" stroke-linejoin="round"/>
</svg>
