<svg width="11" height="14" viewBox="0 0 11 14" fill="none" xmlns="http://www.w3.org/2000/svg">
<path d="M0.435549 1.81983V12.1798C0.435549 12.9698 1.30555 13.4498 1.97555 13.0198L10.1155 7.83983C10.2581 7.74964 10.3754 7.62487 10.4568 7.47713C10.5381 7.32939 10.5808 7.16348 10.5808 6.99483C10.5808 6.82618 10.5381 6.66026 10.4568 6.51252C10.3754 6.36478 10.2581 6.24002 10.1155 6.14983L1.97555 0.979828C1.82472 0.882273 1.65035 0.827235 1.47085 0.820522C1.29134 0.813808 1.11335 0.855668 0.955652 0.941684C0.797955 1.0277 0.666397 1.15469 0.574857 1.30924C0.483317 1.4638 0.435188 1.6402 0.435549 1.81983Z" fill="black"/>
</svg>
