<svg width="20" height="19" viewBox="0 0 20 19" fill="none" xmlns="http://www.w3.org/2000/svg">
<path d="M11.3713 10.4786C11.3713 10.1708 11.4936 9.87558 11.7113 9.65791C11.929 9.44024 12.2242 9.31795 12.532 9.31795C12.8398 9.31795 13.1351 9.44024 13.3527 9.65791C13.5704 9.87558 13.6927 10.1708 13.6927 10.4786C13.6927 10.7865 13.5704 11.0817 13.3527 11.2994C13.1351 11.517 12.8398 11.6393 12.532 11.6393C12.2242 11.6393 11.929 11.517 11.7113 11.2994C11.4936 11.0817 11.3713 10.7865 11.3713 10.4786ZM19.0318 9.55009V18.8355H0.460938V9.55009C0.460938 4.4431 4.63939 0.264648 9.74638 0.264648C14.8534 0.264648 19.0318 4.4431 19.0318 9.55009ZM2.31803 9.55009C2.31803 13.645 5.6515 16.9784 9.74638 16.9784C13.8413 16.9784 17.1747 13.645 17.1747 9.55009C17.1747 8.81654 17.0633 8.11085 16.8683 7.45158C15.0732 7.8686 13.1945 7.74058 11.4726 7.08389C9.75061 6.4272 8.26374 5.27171 7.20217 3.76526C6.29219 5.98448 4.55582 7.77657 2.36445 8.75154C2.31803 9.01153 2.31803 9.28081 2.31803 9.55009ZM6.96075 11.6393C7.26858 11.6393 7.5638 11.517 7.78147 11.2994C7.99914 11.0817 8.12143 10.7865 8.12143 10.4786C8.12143 10.1708 7.99914 9.87558 7.78147 9.65791C7.5638 9.44024 7.26858 9.31795 6.96075 9.31795C6.65292 9.31795 6.35769 9.44024 6.14002 9.65791C5.92235 9.87558 5.80007 10.1708 5.80007 10.4786C5.80007 10.7865 5.92235 11.0817 6.14002 11.2994C6.35769 11.517 6.65292 11.6393 6.96075 11.6393Z" fill="#999999"/>
</svg>
