<svg width="20" height="19" viewBox="0 0 20 19" fill="none" xmlns="http://www.w3.org/2000/svg">
<path d="M7.03425 9.2566C6.7285 9.2566 6.43528 9.37805 6.21909 9.59425C6.00289 9.81044 5.88143 10.1037 5.88143 10.4094C5.88143 10.7152 6.00289 11.0084 6.21909 11.2246C6.43528 11.4408 6.7285 11.5622 7.03425 11.5622C7.18564 11.5622 7.33555 11.5324 7.47541 11.4745C7.61528 11.4165 7.74236 11.3316 7.84941 11.2246C7.95646 11.1175 8.04138 10.9904 8.09931 10.8506C8.15724 10.7107 8.18706 10.5608 8.18706 10.4094C8.18706 10.258 8.15724 10.1081 8.09931 9.96825C8.04138 9.82838 7.95646 9.7013 7.84941 9.59425C7.74236 9.4872 7.61528 9.40228 7.47541 9.34435C7.33555 9.28642 7.18564 9.2566 7.03425 9.2566ZM12.5678 9.2566C12.262 9.2566 11.9688 9.37805 11.7526 9.59425C11.5364 9.81044 11.4149 10.1037 11.4149 10.4094C11.4149 10.7152 11.5364 11.0084 11.7526 11.2246C11.9688 11.4408 12.262 11.5622 12.5678 11.5622C12.8735 11.5622 13.1667 11.4408 13.3829 11.2246C13.5991 11.0084 13.7206 10.7152 13.7206 10.4094C13.7206 10.1037 13.5991 9.81044 13.3829 9.59425C13.1667 9.37805 12.8735 9.2566 12.5678 9.2566ZM9.801 0.264648C8.58988 0.264648 7.39063 0.503196 6.2717 0.96667C5.15277 1.43014 4.13609 2.10947 3.2797 2.96586C1.55015 4.69542 0.578491 7.0412 0.578491 9.48716C0.578491 11.9331 1.55015 14.2789 3.2797 16.0085C4.13609 16.8648 5.15277 17.5442 6.2717 18.0077C7.39063 18.4711 8.58988 18.7097 9.801 18.7097C12.247 18.7097 14.5927 17.738 16.3223 16.0085C18.0519 14.2789 19.0235 11.9331 19.0235 9.48716C19.0235 8.27604 18.785 7.07678 18.3215 5.95786C17.858 4.83893 17.1787 3.82225 16.3223 2.96586C15.4659 2.10947 14.4492 1.43014 13.3303 0.96667C12.2114 0.503196 11.0121 0.264648 9.801 0.264648ZM9.801 16.8652C5.73387 16.8652 2.42299 13.5543 2.42299 9.48716C2.42299 9.21971 2.42299 8.95225 2.46911 8.69402C4.64562 7.72566 6.37023 5.94572 7.27403 3.74154C8.32841 5.23778 9.8052 6.38544 11.5155 7.03767C13.2257 7.68991 15.0917 7.81706 16.8747 7.40287C17.0683 8.05767 17.179 8.75858 17.179 9.48716C17.179 13.5543 13.8681 16.8652 9.801 16.8652Z" fill="#999999"/>
</svg>
