<svg width="17" height="15" viewBox="0 0 17 15" fill="none" xmlns="http://www.w3.org/2000/svg">
<path d="M10.0833 0.583496C8.40355 0.583496 6.79264 1.25076 5.60491 2.43849C4.41718 3.62622 3.74992 5.23712 3.74992 6.91683C3.74992 8.59653 4.41718 10.2074 5.60491 11.3952C6.79264 12.5829 8.40355 13.2502 10.0833 13.2502C11.763 13.2502 13.3739 12.5829 14.5616 11.3952C15.7493 10.2074 16.4166 8.59653 16.4166 6.91683H14.8333C14.8333 9.54516 12.7116 11.6668 10.0833 11.6668C8.82347 11.6668 7.61529 11.1664 6.72449 10.2756C5.8337 9.38479 5.33325 8.17661 5.33325 6.91683C5.33325 5.65705 5.8337 4.44887 6.72449 3.55807C7.61529 2.66727 8.82347 2.16683 10.0833 2.16683C10.4237 2.16683 10.7641 2.20641 11.0887 2.27766L12.3633 1.011C11.6349 0.725996 10.8749 0.583496 10.0833 0.583496ZM15.3003 1.83433L10.0833 7.05141L8.19908 5.16725L7.08284 6.29141L10.0833 9.29183L16.4166 2.9585M2.90284 3.60766C2.17903 4.20138 1.59566 4.94799 1.19461 5.79389C0.793559 6.6398 0.584777 7.56401 0.583252 8.50016C0.583252 10.1799 1.25051 11.7908 2.43824 12.9785C3.62597 14.1662 5.23688 14.8335 6.91658 14.8335C7.42325 14.8335 7.922 14.7702 8.40492 14.6514C7.01159 14.3427 5.72908 13.646 4.67617 12.6881C3.91804 12.2825 3.28421 11.6787 2.84225 10.9412C2.40029 10.2036 2.16677 9.35998 2.16659 8.50016C2.16659 8.26266 2.19034 8.03308 2.222 7.79558C2.19034 7.50266 2.16659 7.20975 2.16659 6.91683C2.16659 5.77683 2.41992 4.64475 2.90284 3.60766Z" fill="#FBFBFE"/>
</svg>
